<?xml version="1.0" encoding="utf-8"?>
<!-- Generator: Adobe Illustrator 21.1.0, SVG Export Plug-In . SVG Version: 6.00 Build 0)  -->
<svg version="1.1" id="Layer_1" xmlns="http://www.w3.org/2000/svg" xmlns:xlink="http://www.w3.org/1999/xlink" x="0px" y="0px"
	 viewBox="0 0 441 229" style="enable-background:new 0 0 441 229;" xml:space="preserve">
<style type="text/css">
	.st0{fill:#00E4AC;}
  #left {
    animation: left 2s infinite;
  }

  #right {
    animation: right 2s infinite;
  }

  @keyframes left {
    0% {
      transform: translateX(0);
    }
    30% {
        transform: translateX(-10px);
    }
    50% {
        transform: translateX(10px);
    }
    80% {
        transform: translateX(10px);
    }
    100% {
        transform: translateX(0);
    }
  }

  @keyframes right {
    0% {
      transform: translateX(0);
    }
    30% {
        transform: translateX(10px);
    }
    50% {
        transform: translateX(-10px);
    }
    80% {
        transform: translateX(-10px);
    }
    100% {
        transform: translateX(0);
    }
  }
</style>
<path id="left" class="st0" d="M176,141h-27.3c-6.7,0-11.6-1.5-14.8-4.6c-3.2-3.1-4.9-7.2-4.9-12.5V66.2c0-5.2,1.6-9.4,4.9-12.5
	c3.2-3.1,8.2-4.6,14.8-4.6h77.3l10.9-19.7h-85.5c-15.2,0-26.5,3.2-33.7,9.7c-7.3,6.5-10.9,17.2-10.9,32.3v47.2
	c0,15.2,3.6,26,10.9,32.4c7.3,6.4,18.5,9.6,33.7,9.6h13.8L176,141z"/>
<path id="right" class="st0" d="M309.7,39c-7.1-6.3-18.1-9.5-32.9-9.6l0,0H276h-3.8h-17.7l-90.8,170.1H186l80.5-150.7l-0.1,0.3h12.3
	c6.6,0,11.6,1.5,14.8,4.6c3.2,3.1,4.9,7.2,4.9,12.5v57.7c0,5.2-1.6,9.4-4.9,12.5c-3.2,3.1-8.2,4.6-14.8,4.6h-43.4l-9.3,19.7H276
	c15.2,0,26.5-3.2,33.7-9.7c7.3-6.5,10.9-17.2,10.9-32.3V71.4C320.6,56.2,317,45.4,309.7,39z"/>
</svg>
