<?xml version="1.0" encoding="utf-8"?>
<!-- Generator: Adobe Illustrator 21.1.0, SVG Export Plug-In . SVG Version: 6.00 Build 0)  -->
<svg version="1.1" id="Layer_1" xmlns="http://www.w3.org/2000/svg" xmlns:xlink="http://www.w3.org/1999/xlink" x="0px" y="0px"
	 viewBox="0 0 1107 229" style="enable-background:new 0 0 1107 229;" xml:space="preserve">
<style type="text/css">
	.st0{fill:#FFFFFF;}
	.st1{fill:#00E4AC;}
</style>
<g>
	<path class="st0" d="M292.8,184.4c-15.2,0-26.5-3.2-33.8-9.6c-7.3-6.4-10.9-17.2-10.9-32.5V95c0-15.1,3.6-25.8,10.9-32.3
		c7.3-6.5,18.5-9.7,33.8-9.7h33.9v19.7h-36.5c-6.7,0-11.6,1.5-14.8,4.6c-3.2,3.1-4.9,7.2-4.9,12.5v57.8c0,5.3,1.6,9.4,4.9,12.5
		c3.2,3.1,8.2,4.6,14.8,4.6h36.5v19.7H292.8z"/>
	<path class="st0" d="M434,174.7c-7.3,6.5-18.5,9.7-33.8,9.7h-8.7c-15.2,0-26.5-3.2-33.8-9.7c-7.3-6.5-10.9-17.3-10.9-32.3V95
		c0-15.1,3.6-25.8,10.9-32.3c7.3-6.5,18.5-9.7,33.8-9.7h8.7c15.2,0,26.5,3.2,33.8,9.7c7.3,6.5,10.9,17.3,10.9,32.3v47.3
		C444.9,157.4,441.3,168.2,434,174.7z M422.6,89.8c0-5.3-1.6-9.4-4.9-12.5c-3.2-3.1-8.2-4.6-14.8-4.6H389c-6.7,0-11.6,1.5-14.8,4.6
		c-3.2,3.1-4.9,7.2-4.9,12.5v57.8c0,5.3,1.6,9.4,4.9,12.5c3.2,3.1,8.2,4.6,14.8,4.6h13.9c6.7,0,11.6-1.5,14.8-4.6
		c3.2-3.1,4.9-7.2,4.9-12.5V89.8z"/>
	<path class="st0" d="M541.3,184.4v-6c-5.8,4-12.8,6-21,6h-10.8c-15.2,0-26.5-3.2-33.8-9.6c-7.3-6.4-10.9-17.2-10.9-32.5V95
		c0-15.1,3.6-25.8,10.9-32.3c7.3-6.5,18.5-9.7,33.8-9.7H540V0.4h22.3v184H541.3z M531.2,163.1c2.2-1.1,3.9-2.3,5.3-3.7
		c1.3-1.4,2.2-3,2.8-4.7c0.5-1.7,0.8-3.2,0.8-4.5V72.7h-33.1c-6.7,0-11.6,1.5-14.8,4.6c-3.2,3.1-4.9,7.2-4.9,12.5v57.8
		c0,5.3,1.6,9.4,4.9,12.5c3.2,3.1,8.2,4.6,14.8,4.6h16C526.3,164.7,529,164.1,531.2,163.1z"/>
	<path class="st0" d="M626.5,184.4c-15.2,0-26.5-3.2-33.8-9.6c-7.3-6.4-10.9-17.2-10.9-32.5V95c0-15.1,3.2-25.8,9.7-32.3
		c6.5-6.5,17.3-9.7,32.3-9.7h12.4c12.6,0,22.1,3.5,28.4,10.5c6.3,7,9.5,17.1,9.5,30.2v34.2h-69.9v19.7c0,5.3,1.6,9.4,4.9,12.5
		c3.2,3.1,8.2,4.6,14.8,4.6h41.8v19.7H626.5z M604.2,108.2h48.1V88.5c0-4.6-1.5-8.3-4.5-11.3c-3-3-6.7-4.5-11.3-4.5h-15.2
		c-6.7,0-11.2,1.5-13.5,4.6c-2.4,3.1-3.5,7.2-3.5,12.5V108.2z"/>
	<path class="st0" d="M693,229.1V53h21v6.3c3-2.3,6.2-3.9,9.7-4.9c3.5-1,7.3-1.4,11.3-1.4h9.5c15.2,0,26.5,3.2,33.8,9.6
		c7.3,6.4,10.9,17.2,10.9,32.5v47.3c0,15.1-3.6,25.8-10.9,32.3c-7.3,6.5-18.5,9.7-33.8,9.7h-29.2v44.7H693z M724.2,74.3
		c-2.2,1.1-3.9,2.3-5.3,3.7c-1.3,1.4-2.2,2.9-2.8,4.6c-0.5,1.7-0.8,3.2-0.8,4.6v77.5h31.8c6.7,0,11.6-1.5,14.8-4.6
		c3.2-3.1,4.9-7.2,4.9-12.5V89.8c0-5.3-1.6-9.4-4.9-12.5c-3.2-3.1-8.2-4.6-14.8-4.6h-14.7C729.1,72.7,726.4,73.2,724.2,74.3z"/>
	<path class="st0" d="M896.7,174.7c-7.3,6.5-18.5,9.7-33.8,9.7h-8.7c-15.2,0-26.5-3.2-33.8-9.7c-7.3-6.5-10.9-17.3-10.9-32.3V95
		c0-15.1,3.6-25.8,10.9-32.3c7.3-6.5,18.5-9.7,33.8-9.7h8.7c15.2,0,26.5,3.2,33.8,9.7c7.3,6.5,10.9,17.3,10.9,32.3v47.3
		C907.6,157.4,903.9,168.2,896.7,174.7z M885.2,89.8c0-5.3-1.6-9.4-4.9-12.5c-3.2-3.1-8.2-4.6-14.8-4.6h-13.9
		c-6.7,0-11.6,1.5-14.8,4.6c-3.2,3.1-4.9,7.2-4.9,12.5v57.8c0,5.3,1.6,9.4,4.9,12.5c3.2,3.1,8.2,4.6,14.8,4.6h13.9
		c6.7,0,11.6-1.5,14.8-4.6c3.2-3.1,4.9-7.2,4.9-12.5V89.8z"/>
	<path class="st0" d="M995.9,176.5c-6.8,5.3-16.6,7.9-29.2,7.9h-39.2v-19.7h41.8c9.6,0,14.5-3.9,14.5-11.8v-13.9
		c0-7.9-3.8-11.8-11.3-11.8h-9.7c-12.1,0-21.2-2.6-27.3-7.8c-6.1-5.2-9.2-13.7-9.2-25.6v-7.6c0-12.3,3.4-20.8,10.2-25.8
		c6.8-4.9,16.6-7.4,29.2-7.4h35.2v19.7h-37.8c-4.2,0-7.7,1-10.4,2.9c-2.7,1.9-4.1,4.9-4.1,8.9V94c0,4.2,1.3,7.2,3.8,9.1
		c2.5,1.8,5.5,2.8,8.8,2.8h8.9c11.7,0,20.7,2.8,26.8,8.5c6.1,5.7,9.2,14.2,9.2,25.4v11.8C1006.2,162.9,1002.7,171.2,995.9,176.5z"/>
	<path class="st0" d="M1074.5,184.4c-9.3,0-16.2-2.9-20.8-8.8c-4.6-5.9-6.8-13.4-6.8-22.7V72.7h-25V53h25V21.4h22.3V53h38.4v19.7
		h-38.4v81.5c0,4,1,6.8,2.9,8.3c1.9,1.5,4.9,2.2,8.9,2.2h26.5v19.7H1074.5z"/>
</g>
<g>
	<path class="st1" d="M69.7,164.6H42.4c-6.7,0-11.6-1.5-14.8-4.6c-3.2-3.1-4.9-7.2-4.9-12.5V89.9c0-5.2,1.6-9.4,4.9-12.5
		c3.2-3.1,8.2-4.6,14.8-4.6h77.3l10.9-19.7H45c-15.2,0-26.5,3.2-33.7,9.7C4,69.3,0.4,80.1,0.4,95.1v47.2c0,15.2,3.6,26,10.9,32.4
		c7.3,6.4,18.5,9.6,33.7,9.6h13.8L69.7,164.6z"/>
	<path class="st1" d="M203.5,62.7c-7.1-6.3-18.1-9.5-32.9-9.6l0,0h-0.8H166h-17.7L57.4,223.2h22.3l80.5-150.7l-0.1,0.3h12.3
		c6.6,0,11.6,1.5,14.8,4.6c3.2,3.1,4.9,7.2,4.9,12.5v57.7c0,5.2-1.6,9.4-4.9,12.5c-3.2,3.1-8.2,4.6-14.8,4.6h-43.4l-9.3,19.7h50.1
		c15.2,0,26.5-3.2,33.7-9.7c7.3-6.5,10.9-17.2,10.9-32.3V95.1C214.4,79.9,210.7,69.1,203.5,62.7z"/>
</g>
</svg>
